<mxfile host="app.diagrams.net" modified="2024-01-23T15:46:47.382Z" agent="Mozilla/5.0 (Windows NT 10.0; Win64; x64) AppleWebKit/537.36 (KHTML, like Gecko) Chrome/120.0.0.0 Safari/537.36" version="22.1.22" etag="Y-AV6HPgJUNPIzJ-QLLR" type="github">
  <diagram name="Page-1" id="Z03WRmBYbH4Ggu-kYXen">
    <mxGraphModel>
      <root>
        <mxCell id="0" />
        <mxCell id="1" parent="0" />
      </root>
    </mxGraphModel>
  </diagram>
</mxfile>
